<svg xmlns="http://www.w3.org/2000/svg" xmlns:xlink="http://www.w3.org/1999/xlink" version="1.1" class="marks" width="728" height="464" viewBox="0 0 728 464"><rect width="728" height="464" fill="white"/><g fill="none" stroke-miterlimit="10" transform="translate(122,27)"><g class="mark-group role-frame root" role="graphics-object" aria-roledescription="group mark container"><g transform="translate(0,0)"><path class="background" aria-hidden="true" d="M0.5,0.5h600v400h-600Z" stroke="#ddd"/><g><g class="mark-group role-axis" aria-hidden="true"><g transform="translate(0.5,400.5)"><path class="background" aria-hidden="true" d="M0,0h0v0h0Z" pointer-events="none"/><g><g class="mark-rule role-axis-grid" pointer-events="none"><line transform="translate(0,-400)" x2="0" y2="400" stroke="#ddd" stroke-width="1" opacity="1"/><line transform="translate(33,-400)" x2="0" y2="400" stroke="#ddd" stroke-width="1" opacity="1"/><line transform="translate(67,-400)" x2="0" y2="400" stroke="#ddd" stroke-width="1" opacity="1"/><line transform="translate(100,-400)" x2="0" y2="400" stroke="#ddd" stroke-width="1" opacity="1"/><line transform="translate(133,-400)" x2="0" y2="400" stroke="#ddd" stroke-width="1" opacity="1"/><line transform="translate(167,-400)" x2="0" y2="400" stroke="#ddd" stroke-width="1" opacity="1"/><line transform="translate(200,-400)" x2="0" y2="400" stroke="#ddd" stroke-width="1" opacity="1"/><line transform="translate(233,-400)" x2="0" y2="400" stroke="#ddd" stroke-width="1" opacity="1"/><line transform="translate(267,-400)" x2="0" y2="400" stroke="#ddd" stroke-width="1" opacity="1"/><line transform="translate(300,-400)" x2="0" y2="400" stroke="#ddd" stroke-width="1" opacity="1"/><line transform="translate(333,-400)" x2="0" y2="400" stroke="#ddd" stroke-width="1" opacity="1"/><line transform="translate(367,-400)" x2="0" y2="400" stroke="#ddd" stroke-width="1" opacity="1"/><line transform="translate(400,-400)" x2="0" y2="400" stroke="#ddd" stroke-width="1" opacity="1"/><line transform="translate(433,-400)" x2="0" y2="400" stroke="#ddd" stroke-width="1" opacity="1"/><line transform="translate(467,-400)" x2="0" y2="400" stroke="#ddd" stroke-width="1" opacity="1"/><line transform="translate(500,-400)" x2="0" y2="400" stroke="#ddd" stroke-width="1" opacity="1"/><line transform="translate(533,-400)" x2="0" y2="400" stroke="#ddd" stroke-width="1" opacity="1"/><line transform="translate(567,-400)" x2="0" y2="400" stroke="#ddd" stroke-width="1" opacity="1"/><line transform="translate(600,-400)" x2="0" y2="400" stroke="#ddd" stroke-width="1" opacity="1"/></g></g><path class="foreground" aria-hidden="true" d="" pointer-events="none" display="none"/></g></g><g class="mark-group role-axis" aria-hidden="true"><g transform="translate(0.5,0.5)"><path class="background" aria-hidden="true" d="M0,0h0v0h0Z" pointer-events="none"/><g><g class="mark-rule role-axis-grid" pointer-events="none"><line transform="translate(0,400)" x2="600" y2="0" stroke="#ddd" stroke-width="1" opacity="1"/><line transform="translate(0,364)" x2="600" y2="0" stroke="#ddd" stroke-width="1" opacity="1"/><line transform="translate(0,327)" x2="600" y2="0" stroke="#ddd" stroke-width="1" opacity="1"/><line transform="translate(0,291)" x2="600" y2="0" stroke="#ddd" stroke-width="1" opacity="1"/><line transform="translate(0,255)" x2="600" y2="0" stroke="#ddd" stroke-width="1" opacity="1"/><line transform="translate(0,218)" x2="600" y2="0" stroke="#ddd" stroke-width="1" opacity="1"/><line transform="translate(0,182)" x2="600" y2="0" stroke="#ddd" stroke-width="1" opacity="1"/><line transform="translate(0,145)" x2="600" y2="0" stroke="#ddd" stroke-width="1" opacity="1"/><line transform="translate(0,109)" x2="600" y2="0" stroke="#ddd" stroke-width="1" opacity="1"/><line transform="translate(0,73)" x2="600" y2="0" stroke="#ddd" stroke-width="1" opacity="1"/><line transform="translate(0,36)" x2="600" y2="0" stroke="#ddd" stroke-width="1" opacity="1"/><line transform="translate(0,0)" x2="600" y2="0" stroke="#ddd" stroke-width="1" opacity="1"/></g></g><path class="foreground" aria-hidden="true" d="" pointer-events="none" display="none"/></g></g><g class="mark-group role-axis" role="graphics-symbol" aria-roledescription="axis" aria-label="X-axis titled 'Produção total (t)' for a linear scale with values from 0 to 9,000,000,000"><g transform="translate(0.5,400.5)"><path class="background" aria-hidden="true" d="M0,0h0v0h0Z" pointer-events="none"/><g><g class="mark-rule role-axis-tick" pointer-events="none"><line transform="translate(0,0)" x2="0" y2="5" stroke="#888" stroke-width="1" opacity="1"/><line transform="translate(33,0)" x2="0" y2="5" stroke="#888" stroke-width="1" opacity="1"/><line transform="translate(67,0)" x2="0" y2="5" stroke="#888" stroke-width="1" opacity="1"/><line transform="translate(100,0)" x2="0" y2="5" stroke="#888" stroke-width="1" opacity="1"/><line transform="translate(133,0)" x2="0" y2="5" stroke="#888" stroke-width="1" opacity="1"/><line transform="translate(167,0)" x2="0" y2="5" stroke="#888" stroke-width="1" opacity="1"/><line transform="translate(200,0)" x2="0" y2="5" stroke="#888" stroke-width="1" opacity="1"/><line transform="translate(233,0)" x2="0" y2="5" stroke="#888" stroke-width="1" opacity="1"/><line transform="translate(267,0)" x2="0" y2="5" stroke="#888" stroke-width="1" opacity="1"/><line transform="translate(300,0)" x2="0" y2="5" stroke="#888" stroke-width="1" opacity="1"/><line transform="translate(333,0)" x2="0" y2="5" stroke="#888" stroke-width="1" opacity="1"/><line transform="translate(367,0)" x2="0" y2="5" stroke="#888" stroke-width="1" opacity="1"/><line transform="translate(400,0)" x2="0" y2="5" stroke="#888" stroke-width="1" opacity="1"/><line transform="translate(433,0)" x2="0" y2="5" stroke="#888" stroke-width="1" opacity="1"/><line transform="translate(467,0)" x2="0" y2="5" stroke="#888" stroke-width="1" opacity="1"/><line transform="translate(500,0)" x2="0" y2="5" stroke="#888" stroke-width="1" opacity="1"/><line transform="translate(533,0)" x2="0" y2="5" stroke="#888" stroke-width="1" opacity="1"/><line transform="translate(567,0)" x2="0" y2="5" stroke="#888" stroke-width="1" opacity="1"/><line transform="translate(600,0)" x2="0" y2="5" stroke="#888" stroke-width="1" opacity="1"/></g><g class="mark-text role-axis-label" pointer-events="none"><text text-anchor="start" transform="translate(0,15)" font-family="sans-serif" font-size="10px" fill="#000" opacity="1">0</text><text text-anchor="middle" transform="translate(33.33333333333333,15)" font-family="sans-serif" font-size="10px" fill="#000" opacity="0">500,000,000</text><text text-anchor="middle" transform="translate(66.66666666666666,15)" font-family="sans-serif" font-size="10px" fill="#000" opacity="0">1,000,000,000</text><text text-anchor="middle" transform="translate(100,15)" font-family="sans-serif" font-size="10px" fill="#000" opacity="0">1,500,000,000</text><text text-anchor="middle" transform="translate(133.33333333333331,15)" font-family="sans-serif" font-size="10px" fill="#000" opacity="1">2,000,000,000</text><text text-anchor="middle" transform="translate(166.66666666666669,15)" font-family="sans-serif" font-size="10px" fill="#000" opacity="0">2,500,000,000</text><text text-anchor="middle" transform="translate(200,15)" font-family="sans-serif" font-size="10px" fill="#000" opacity="0">3,000,000,000</text><text text-anchor="middle" transform="translate(233.33333333333334,15)" font-family="sans-serif" font-size="10px" fill="#000" opacity="0">3,500,000,000</text><text text-anchor="middle" transform="translate(266.66666666666663,15)" font-family="sans-serif" font-size="10px" fill="#000" opacity="1">4,000,000,000</text><text text-anchor="middle" transform="translate(300,15)" font-family="sans-serif" font-size="10px" fill="#000" opacity="0">4,500,000,000</text><text text-anchor="middle" transform="translate(333.33333333333337,15)" font-family="sans-serif" font-size="10px" fill="#000" opacity="0">5,000,000,000</text><text text-anchor="middle" transform="translate(366.6666666666667,15)" font-family="sans-serif" font-size="10px" fill="#000" opacity="0">5,500,000,000</text><text text-anchor="middle" transform="translate(400,15)" font-family="sans-serif" font-size="10px" fill="#000" opacity="1">6,000,000,000</text><text text-anchor="middle" transform="translate(433.3333333333333,15)" font-family="sans-serif" font-size="10px" fill="#000" opacity="0">6,500,000,000</text><text text-anchor="middle" transform="translate(466.6666666666667,15)" font-family="sans-serif" font-size="10px" fill="#000" opacity="0">7,000,000,000</text><text text-anchor="middle" transform="translate(500,15)" font-family="sans-serif" font-size="10px" fill="#000" opacity="0">7,500,000,000</text><text text-anchor="middle" transform="translate(533.3333333333333,15)" font-family="sans-serif" font-size="10px" fill="#000" opacity="1">8,000,000,000</text><text text-anchor="middle" transform="translate(566.6666666666666,15)" font-family="sans-serif" font-size="10px" fill="#000" opacity="0">8,500,000,000</text><text text-anchor="end" transform="translate(600,15)" font-family="sans-serif" font-size="10px" fill="#000" opacity="0">9,000,000,000</text></g><g class="mark-rule role-axis-domain" pointer-events="none"><line transform="translate(0,0)" x2="600" y2="0" stroke="#888" stroke-width="1" opacity="1"/></g><g class="mark-text role-axis-title" pointer-events="none"><text text-anchor="middle" transform="translate(300,30)" font-family="sans-serif" font-size="11px" font-weight="bold" fill="#000" opacity="1">Produção total (t)</text></g></g><path class="foreground" aria-hidden="true" d="" pointer-events="none" display="none"/></g></g><g class="mark-group role-axis" role="graphics-symbol" aria-roledescription="axis" aria-label="Y-axis titled 'PIB ($)' for a linear scale with values from 0 to 110,000,000,000,000"><g transform="translate(0.5,0.5)"><path class="background" aria-hidden="true" d="M0,0h0v0h0Z" pointer-events="none"/><g><g class="mark-rule role-axis-tick" pointer-events="none"><line transform="translate(0,400)" x2="-5" y2="0" stroke="#888" stroke-width="1" opacity="1"/><line transform="translate(0,364)" x2="-5" y2="0" stroke="#888" stroke-width="1" opacity="1"/><line transform="translate(0,327)" x2="-5" y2="0" stroke="#888" stroke-width="1" opacity="1"/><line transform="translate(0,291)" x2="-5" y2="0" stroke="#888" stroke-width="1" opacity="1"/><line transform="translate(0,255)" x2="-5" y2="0" stroke="#888" stroke-width="1" opacity="1"/><line transform="translate(0,218)" x2="-5" y2="0" stroke="#888" stroke-width="1" opacity="1"/><line transform="translate(0,182)" x2="-5" y2="0" stroke="#888" stroke-width="1" opacity="1"/><line transform="translate(0,145)" x2="-5" y2="0" stroke="#888" stroke-width="1" opacity="1"/><line transform="translate(0,109)" x2="-5" y2="0" stroke="#888" stroke-width="1" opacity="1"/><line transform="translate(0,73)" x2="-5" y2="0" stroke="#888" stroke-width="1" opacity="1"/><line transform="translate(0,36)" x2="-5" y2="0" stroke="#888" stroke-width="1" opacity="1"/><line transform="translate(0,0)" x2="-5" y2="0" stroke="#888" stroke-width="1" opacity="1"/></g><g class="mark-text role-axis-label" pointer-events="none"><text text-anchor="end" transform="translate(-7,403)" font-family="sans-serif" font-size="10px" fill="#000" opacity="1">0</text><text text-anchor="end" transform="translate(-7,366.6363636363636)" font-family="sans-serif" font-size="10px" fill="#000" opacity="1">10,000,000,000,000</text><text text-anchor="end" transform="translate(-7,330.27272727272725)" font-family="sans-serif" font-size="10px" fill="#000" opacity="1">20,000,000,000,000</text><text text-anchor="end" transform="translate(-7,293.90909090909093)" font-family="sans-serif" font-size="10px" fill="#000" opacity="1">30,000,000,000,000</text><text text-anchor="end" transform="translate(-7,257.5454545454545)" font-family="sans-serif" font-size="10px" fill="#000" opacity="1">40,000,000,000,000</text><text text-anchor="end" transform="translate(-7,221.18181818181816)" font-family="sans-serif" font-size="10px" fill="#000" opacity="1">50,000,000,000,000</text><text text-anchor="end" transform="translate(-7,184.81818181818184)" font-family="sans-serif" font-size="10px" fill="#000" opacity="1">60,000,000,000,000</text><text text-anchor="end" transform="translate(-7,148.45454545454547)" font-family="sans-serif" font-size="10px" fill="#000" opacity="1">70,000,000,000,000</text><text text-anchor="end" transform="translate(-7,112.09090909090908)" font-family="sans-serif" font-size="10px" fill="#000" opacity="1">80,000,000,000,000</text><text text-anchor="end" transform="translate(-7,75.7272727272727)" font-family="sans-serif" font-size="10px" fill="#000" opacity="1">90,000,000,000,000</text><text text-anchor="end" transform="translate(-7,39.363636363636374)" font-family="sans-serif" font-size="10px" fill="#000" opacity="1">100,000,000,000,000</text><text text-anchor="end" transform="translate(-7,3)" font-family="sans-serif" font-size="10px" fill="#000" opacity="1">110,000,000,000,000</text></g><g class="mark-rule role-axis-domain" pointer-events="none"><line transform="translate(0,400)" x2="0" y2="-400" stroke="#888" stroke-width="1" opacity="1"/></g><g class="mark-text role-axis-title" pointer-events="none"><text text-anchor="middle" transform="translate(-105.5361328125,200) rotate(-90) translate(0,-2)" font-family="sans-serif" font-size="11px" font-weight="bold" fill="#000" opacity="1">PIB ($)</text></g></g><path class="foreground" aria-hidden="true" d="" pointer-events="none" display="none"/></g></g><g class="mark-symbol role-mark layer_0_marks" role="graphics-object" aria-roledescription="symbol mark container"><path aria-label="Produção total (t): 2267737469.58; PIB ($): 1.43931947388e+12; country_code: WLD; ano: 1961" role="graphics-symbol" aria-roledescription="point" transform="translate(151.182497972,394.7661110040691)" d="M2.739,0A2.739,2.739,0,1,1,-2.739,0A2.739,2.739,0,1,1,2.739,0" stroke="#4c78a8" stroke-width="2" opacity="0.7"/><path aria-label="Produção total (t): 2296595729.86; PIB ($): 1.54284450688e+12; country_code: WLD; ano: 1962" role="graphics-symbol" aria-roledescription="point" transform="translate(153.10638199066665,394.38965633860363)" d="M2.739,0A2.739,2.739,0,1,1,-2.739,0A2.739,2.739,0,1,1,2.739,0" stroke="#4c78a8" stroke-width="2" opacity="0.7"/><path aria-label="Produção total (t): 2361491759.93; PIB ($): 1.66497695921e+12; country_code: WLD; ano: 1963" role="graphics-symbol" aria-roledescription="point" transform="translate(157.43278399533332,393.94553833015635)" d="M2.739,0A2.739,2.739,0,1,1,-2.739,0A2.739,2.739,0,1,1,2.739,0" stroke="#4c78a8" stroke-width="2" opacity="0.7"/><path aria-label="Produção total (t): 2547013383.49; PIB ($): 1.82778485517e+12; country_code: WLD; ano: 1964" role="graphics-symbol" aria-roledescription="point" transform="translate(169.80089223266665,393.35350961757456)" d="M2.739,0A2.739,2.739,0,1,1,-2.739,0A2.739,2.739,0,1,1,2.739,0" stroke="#4c78a8" stroke-width="2" opacity="0.7"/><path aria-label="Produção total (t): 2575588505.35; PIB ($): 1.99023954678e+12; country_code: WLD; ano: 1965" role="graphics-symbol" aria-roledescription="point" transform="translate(171.70590035666666,392.76276528445453)" d="M2.739,0A2.739,2.739,0,1,1,-2.739,0A2.739,2.739,0,1,1,2.739,0" stroke="#4c78a8" stroke-width="2" opacity="0.7"/><path aria-label="Produção total (t): 2692144851.55; PIB ($): 2.15463762941e+12; country_code: WLD; ano: 1966" role="graphics-symbol" aria-roledescription="point" transform="translate(179.47632343666666,392.16495407489094)" d="M2.739,0A2.739,2.739,0,1,1,-2.739,0A2.739,2.739,0,1,1,2.739,0" stroke="#4c78a8" stroke-width="2" opacity="0.7"/><path aria-label="Produção total (t): 2780298743.56; PIB ($): 2.29387278687e+12; country_code: WLD; ano: 1967" role="graphics-symbol" aria-roledescription="point" transform="translate(185.35324957066666,391.6586444113927)" d="M2.739,0A2.739,2.739,0,1,1,-2.739,0A2.739,2.739,0,1,1,2.739,0" stroke="#4c78a8" stroke-width="2" opacity="0.7"/><path aria-label="Produção total (t): 2844339596.95; PIB ($): 2.47901177307e+12; country_code: WLD; ano: 1968" role="graphics-symbol" aria-roledescription="point" transform="translate(189.62263979666665,390.9854117342873)" d="M2.739,0A2.739,2.739,0,1,1,-2.739,0A2.739,2.739,0,1,1,2.739,0" stroke="#4c78a8" stroke-width="2" opacity="0.7"/><path aria-label="Produção total (t): 2842837043.38; PIB ($): 2.73553135971e+12; country_code: WLD; ano: 1969" role="graphics-symbol" aria-roledescription="point" transform="translate(189.52246955866667,390.0526132374254)" d="M2.739,0A2.739,2.739,0,1,1,-2.739,0A2.739,2.739,0,1,1,2.739,0" stroke="#4c78a8" stroke-width="2" opacity="0.7"/><path aria-label="Produção total (t): 2988943935.73; PIB ($): 3.0015596263e+12; country_code: WLD; ano: 1970" role="graphics-symbol" aria-roledescription="point" transform="translate(199.26292904866668,389.0852377225309)" d="M2.739,0A2.739,2.739,0,1,1,-2.739,0A2.739,2.739,0,1,1,2.739,0" stroke="#4c78a8" stroke-width="2" opacity="0.7"/><path aria-label="Produção total (t): 3058931073.73; PIB ($): 3.31606069794e+12; country_code: WLD; ano: 1971" role="graphics-symbol" aria-roledescription="point" transform="translate(203.92873824866666,387.9415974620509)" d="M2.739,0A2.739,2.739,0,1,1,-2.739,0A2.739,2.739,0,1,1,2.739,0" stroke="#4c78a8" stroke-width="2" opacity="0.7"/><path aria-label="Produção total (t): 3011936048.31; PIB ($): 3.83267500871e+12; country_code: WLD; ano: 1972" role="graphics-symbol" aria-roledescription="point" transform="translate(200.795736554,386.0629999683455)" d="M2.739,0A2.739,2.739,0,1,1,-2.739,0A2.739,2.739,0,1,1,2.739,0" stroke="#4c78a8" stroke-width="2" opacity="0.7"/><path aria-label="Produção total (t): 3227817662.07; PIB ($): 4.66249134082e+12; country_code: WLD; ano: 1973" role="graphics-symbol" aria-roledescription="point" transform="translate(215.187844138,383.0454860333782)" d="M2.739,0A2.739,2.739,0,1,1,-2.739,0A2.739,2.739,0,1,1,2.739,0" stroke="#4c78a8" stroke-width="2" opacity="0.7"/><path aria-label="Produção total (t): 3216238933.79; PIB ($): 5.35893363157e+12; country_code: WLD; ano: 1974" role="graphics-symbol" aria-roledescription="point" transform="translate(214.4159289193333,380.5129686124727)" d="M2.739,0A2.739,2.739,0,1,1,-2.739,0A2.739,2.739,0,1,1,2.739,0" stroke="#4c78a8" stroke-width="2" opacity="0.7"/><path aria-label="Produção total (t): 3280541000.33; PIB ($): 5.99067414049e+12; country_code: WLD; ano: 1975" role="graphics-symbol" aria-roledescription="point" transform="translate(218.70273335533332,378.21573039822545)" d="M2.739,0A2.739,2.739,0,1,1,-2.739,0A2.739,2.739,0,1,1,2.739,0" stroke="#4c78a8" stroke-width="2" opacity="0.7"/><path aria-label="Produção total (t): 3467423010.51; PIB ($): 6.50827631963e+12; country_code: WLD; ano: 1976" role="graphics-symbol" aria-roledescription="point" transform="translate(231.16153403400003,376.3335406558945)" d="M2.739,0A2.739,2.739,0,1,1,-2.739,0A2.739,2.739,0,1,1,2.739,0" stroke="#4c78a8" stroke-width="2" opacity="0.7"/><path aria-label="Produção total (t): 3537424102.54; PIB ($): 7.35678549792e+12; country_code: WLD; ano: 1977" role="graphics-symbol" aria-roledescription="point" transform="translate(235.82827350266666,373.2480527348545)" d="M2.739,0A2.739,2.739,0,1,1,-2.739,0A2.739,2.739,0,1,1,2.739,0" stroke="#4c78a8" stroke-width="2" opacity="0.7"/><path aria-label="Produção total (t): 3733490964.15; PIB ($): 8.70084627243e+12; country_code: WLD; ano: 1978" role="graphics-symbol" aria-roledescription="point" transform="translate(248.89939761000002,368.36055900935276)" d="M2.739,0A2.739,2.739,0,1,1,-2.739,0A2.739,2.739,0,1,1,2.739,0" stroke="#4c78a8" stroke-width="2" opacity="0.7"/><path aria-label="Produção total (t): 3709154413.43; PIB ($): 1.01134308987e+13; country_code: WLD; ano: 1979" role="graphics-symbol" aria-roledescription="point" transform="translate(247.27696089533333,363.2238876409745)" d="M2.739,0A2.739,2.739,0,1,1,-2.739,0A2.739,2.739,0,1,1,2.739,0" stroke="#4c78a8" stroke-width="2" opacity="0.7"/><path aria-label="Produção total (t): 3635488679.47; PIB ($): 1.14191641612e+13; country_code: WLD; ano: 1980" role="graphics-symbol" aria-roledescription="point" transform="translate(242.36591196466668,358.47576668648367)" d="M2.739,0A2.739,2.739,0,1,1,-2.739,0A2.739,2.739,0,1,1,2.739,0" stroke="#4c78a8" stroke-width="2" opacity="0.7"/><path aria-label="Produção total (t): 3848078704.88; PIB ($): 1.1796482847e+13; country_code: WLD; ano: 1981" role="graphics-symbol" aria-roledescription="point" transform="translate(256.5385803253333,357.10369873812004)" d="M2.739,0A2.739,2.739,0,1,1,-2.739,0A2.739,2.739,0,1,1,2.739,0" stroke="#4c78a8" stroke-width="2" opacity="0.7"/><path aria-label="Produção total (t): 4074905087.56; PIB ($): 1.16480858805e+13; country_code: WLD; ano: 1982" role="graphics-symbol" aria-roledescription="point" transform="translate(271.6603391706667,357.64332407096)" d="M2.739,0A2.739,2.739,0,1,1,-2.739,0A2.739,2.739,0,1,1,2.739,0" stroke="#4c78a8" stroke-width="2" opacity="0.7"/><path aria-label="Produção total (t): 3990560071.58; PIB ($): 1.19722107926e+13; country_code: WLD; ano: 1983" role="graphics-symbol" aria-roledescription="point" transform="translate(266.03733810533333,356.4646880267527)" d="M2.739,0A2.739,2.739,0,1,1,-2.739,0A2.739,2.739,0,1,1,2.739,0" stroke="#4c78a8" stroke-width="2" opacity="0.7"/><path aria-label="Produção total (t): 4257386279.75; PIB ($): 1.24459893455e+13; country_code: WLD; ano: 1984" role="graphics-symbol" aria-roledescription="point" transform="translate(283.8257519833333,354.7418569255673)" d="M2.739,0A2.739,2.739,0,1,1,-2.739,0A2.739,2.739,0,1,1,2.739,0" stroke="#4c78a8" stroke-width="2" opacity="0.7"/><path aria-label="Produção total (t): 4282482028.04; PIB ($): 1.30239928244e+13; country_code: WLD; ano: 1985" role="graphics-symbol" aria-roledescription="point" transform="translate(285.4988018693333,352.6400260930218)" d="M2.739,0A2.739,2.739,0,1,1,-2.739,0A2.739,2.739,0,1,1,2.739,0" stroke="#4c78a8" stroke-width="2" opacity="0.7"/><path aria-label="Produção total (t): 4356530290.62; PIB ($): 1.53516898866e+13; country_code: WLD; ano: 1986" role="graphics-symbol" aria-roledescription="point" transform="translate(290.435352708,344.17567313948)" d="M2.739,0A2.739,2.739,0,1,1,-2.739,0A2.739,2.739,0,1,1,2.739,0" stroke="#4c78a8" stroke-width="2" opacity="0.7"/><path aria-label="Produção total (t): 4378197650.65; PIB ($): 1.74850792083e+13; country_code: WLD; ano: 1987" role="graphics-symbol" aria-roledescription="point" transform="translate(291.8798433766666,336.4178937878509)" d="M2.739,0A2.739,2.739,0,1,1,-2.739,0A2.739,2.739,0,1,1,2.739,0" stroke="#4c78a8" stroke-width="2" opacity="0.7"/><path aria-label="Produção total (t): 4353624198.59; PIB ($): 1.95475334201e+13; country_code: WLD; ano: 1988" role="graphics-symbol" aria-roledescription="point" transform="translate(290.24161323933333,328.9180602905091)" d="M2.739,0A2.739,2.739,0,1,1,-2.739,0A2.739,2.739,0,1,1,2.739,0" stroke="#4c78a8" stroke-width="2" opacity="0.7"/><path aria-label="Produção total (t): 4571368864.57; PIB ($): 2.03241444548e+13; country_code: WLD; ano: 1989" role="graphics-symbol" aria-roledescription="point" transform="translate(304.7579243046667,326.09402016423275)" d="M2.739,0A2.739,2.739,0,1,1,-2.739,0A2.739,2.739,0,1,1,2.739,0" stroke="#4c78a8" stroke-width="2" opacity="0.7"/><path aria-label="Produção total (t): 4700416871.33; PIB ($): 2.28226100474e+13; country_code: WLD; ano: 1990" role="graphics-symbol" aria-roledescription="point" transform="translate(313.3611247553333,317.00869073684726)" d="M2.739,0A2.739,2.739,0,1,1,-2.739,0A2.739,2.739,0,1,1,2.739,0" stroke="#4c78a8" stroke-width="2" opacity="0.7"/><path aria-label="Produção total (t): 4681978892.5; PIB ($): 2.38235516329e+13; country_code: WLD; ano: 1991" role="graphics-symbol" aria-roledescription="point" transform="translate(312.1319261666667,313.3689031531164)" d="M2.739,0A2.739,2.739,0,1,1,-2.739,0A2.739,2.739,0,1,1,2.739,0" stroke="#4c78a8" stroke-width="2" opacity="0.7"/><path aria-label="Produção total (t): 4817220449.48; PIB ($): 2.54680132952e+13; country_code: WLD; ano: 1992" role="graphics-symbol" aria-roledescription="point" transform="translate(321.14802996533325,307.38904256298906)" d="M2.739,0A2.739,2.739,0,1,1,-2.739,0A2.739,2.739,0,1,1,2.739,0" stroke="#4c78a8" stroke-width="2" opacity="0.7"/><path aria-label="Produção total (t): 4727301098.15; PIB ($): 2.59594190352e+13; country_code: WLD; ano: 1993" role="graphics-symbol" aria-roledescription="point" transform="translate(315.1534065433333,305.6021125994145)" d="M2.739,0A2.739,2.739,0,1,1,-2.739,0A2.739,2.739,0,1,1,2.739,0" stroke="#4c78a8" stroke-width="2" opacity="0.7"/><path aria-label="Produção total (t): 4838561224.94; PIB ($): 2.79388512796e+13; country_code: WLD; ano: 1994" role="graphics-symbol" aria-roledescription="point" transform="translate(322.5707483293333,298.40417716492726)" d="M2.739,0A2.739,2.739,0,1,1,-2.739,0A2.739,2.739,0,1,1,2.739,0" stroke="#4c78a8" stroke-width="2" opacity="0.7"/><path aria-label="Produção total (t): 4936149859.81; PIB ($): 3.11406100569e+13; country_code: WLD; ano: 1995" role="graphics-symbol" aria-roledescription="point" transform="translate(329.07665732066664,286.76141797474185)" d="M2.739,0A2.739,2.739,0,1,1,-2.739,0A2.739,2.739,0,1,1,2.739,0" stroke="#4c78a8" stroke-width="2" opacity="0.7"/><path aria-label="Produção total (t): 5236739724.17; PIB ($): 3.18576941013e+13; country_code: WLD; ano: 1996" role="graphics-symbol" aria-roledescription="point" transform="translate(349.1159816113334,284.1538396317382)" d="M2.739,0A2.739,2.739,0,1,1,-2.739,0A2.739,2.739,0,1,1,2.739,0" stroke="#4c78a8" stroke-width="2" opacity="0.7"/><path aria-label="Produção total (t): 5354134686.46; PIB ($): 3.17522971547e+13; country_code: WLD; ano: 1997" role="graphics-symbol" aria-roledescription="point" transform="translate(356.9423124306667,284.53710125546905)" d="M2.739,0A2.739,2.739,0,1,1,-2.739,0A2.739,2.739,0,1,1,2.739,0" stroke="#4c78a8" stroke-width="2" opacity="0.7"/><path aria-label="Produção total (t): 5381346329.69; PIB ($): 3.16970437497e+13; country_code: WLD; ano: 1998" role="graphics-symbol" aria-roledescription="point" transform="translate(358.7564219793333,284.7380227285127)" d="M2.739,0A2.739,2.739,0,1,1,-2.739,0A2.739,2.739,0,1,1,2.739,0" stroke="#4c78a8" stroke-width="2" opacity="0.7"/><path aria-label="Produção total (t): 5489637653.05; PIB ($): 3.27309982801e+13; country_code: WLD; ano: 1999" role="graphics-symbol" aria-roledescription="point" transform="translate(365.9758435366667,280.9781880724327)" d="M2.739,0A2.739,2.739,0,1,1,-2.739,0A2.739,2.739,0,1,1,2.739,0" stroke="#4c78a8" stroke-width="2" opacity="0.7"/><path aria-label="Produção total (t): 5545079646.34; PIB ($): 3.383938735e+13; country_code: WLD; ano: 2000" role="graphics-symbol" aria-roledescription="point" transform="translate(369.67197642266666,276.94768236346545)" d="M2.739,0A2.739,2.739,0,1,1,-2.739,0A2.739,2.739,0,1,1,2.739,0" stroke="#4c78a8" stroke-width="2" opacity="0.7"/><path aria-label="Produção total (t): 5586682459.22; PIB ($): 3.36269602027e+13; country_code: WLD; ano: 2001" role="graphics-symbol" aria-roledescription="point" transform="translate(372.44549728133336,277.72014471761094)" d="M2.739,0A2.739,2.739,0,1,1,-2.739,0A2.739,2.739,0,1,1,2.739,0" stroke="#4c78a8" stroke-width="2" opacity="0.7"/><path aria-label="Produção total (t): 5706112707.79; PIB ($): 3.4917697038e+13; country_code: WLD; ano: 2002" role="graphics-symbol" aria-roledescription="point" transform="translate(380.4075138526667,273.02655622552)" d="M2.739,0A2.739,2.739,0,1,1,-2.739,0A2.739,2.739,0,1,1,2.739,0" stroke="#4c78a8" stroke-width="2" opacity="0.7"/><path aria-label="Produção total (t): 5807080976.79; PIB ($): 3.91521392897e+13; country_code: WLD; ano: 2003" role="graphics-symbol" aria-roledescription="point" transform="translate(387.138731786,257.62858440107277)" d="M2.739,0A2.739,2.739,0,1,1,-2.739,0A2.739,2.739,0,1,1,2.739,0" stroke="#4c78a8" stroke-width="2" opacity="0.7"/><path aria-label="Produção total (t): 6064232980.49; PIB ($): 4.41162445708e+13; country_code: WLD; ano: 2004" role="graphics-symbol" aria-roledescription="point" transform="translate(404.2821986993333,239.5772924699818)" d="M2.739,0A2.739,2.739,0,1,1,-2.739,0A2.739,2.739,0,1,1,2.739,0" stroke="#4c78a8" stroke-width="2" opacity="0.7"/><path aria-label="Produção total (t): 6057683422.76; PIB ($): 4.77603207387e+13; country_code: WLD; ano: 2005" role="graphics-symbol" aria-roledescription="point" transform="translate(403.84556151733335,226.32610640455636)" d="M2.739,0A2.739,2.739,0,1,1,-2.739,0A2.739,2.739,0,1,1,2.739,0" stroke="#4c78a8" stroke-width="2" opacity="0.7"/><path aria-label="Produção total (t): 6239060895.34; PIB ($): 5.17498086326e+13; country_code: WLD; ano: 2006" role="graphics-symbol" aria-roledescription="point" transform="translate(415.9373930226667,211.8188776996873)" d="M2.739,0A2.739,2.739,0,1,1,-2.739,0A2.739,2.739,0,1,1,2.739,0" stroke="#4c78a8" stroke-width="2" opacity="0.7"/><path aria-label="Produção total (t): 6568410329.57; PIB ($): 5.83148679299e+13; country_code: WLD; ano: 2007" role="graphics-symbol" aria-roledescription="point" transform="translate(437.8940219713333,187.94593480044003)" d="M2.739,0A2.739,2.739,0,1,1,-2.739,0A2.739,2.739,0,1,1,2.739,0" stroke="#4c78a8" stroke-width="2" opacity="0.7"/><path aria-label="Produção total (t): 6904105643.3; PIB ($): 6.40722959296e+13; country_code: WLD; ano: 2008" role="graphics-symbol" aria-roledescription="point" transform="translate(460.2737095533334,167.00983298311635)" d="M2.739,0A2.739,2.739,0,1,1,-2.739,0A2.739,2.739,0,1,1,2.739,0" stroke="#4c78a8" stroke-width="2" opacity="0.7"/><path aria-label="Produção total (t): 6859626318.21; PIB ($): 6.07182627545e+13; country_code: WLD; ano: 2009" role="graphics-symbol" aria-roledescription="point" transform="translate(457.308421214,179.20631725643634)" d="M2.739,0A2.739,2.739,0,1,1,-2.739,0A2.739,2.739,0,1,1,2.739,0" stroke="#4c78a8" stroke-width="2" opacity="0.7"/><path aria-label="Produção total (t): 6923748442.88; PIB ($): 6.65141746348e+13; country_code: WLD; ano: 2010" role="graphics-symbol" aria-roledescription="point" transform="translate(461.58322952533337,158.13027405536002)" d="M2.739,0A2.739,2.739,0,1,1,-2.739,0A2.739,2.739,0,1,1,2.739,0" stroke="#4c78a8" stroke-width="2" opacity="0.7"/><path aria-label="Produção total (t): 7356793501.15; PIB ($): 7.39577929098e+13; country_code: WLD; ano: 2011" role="graphics-symbol" aria-roledescription="point" transform="translate(490.4529000766666,131.0625712372)" d="M2.739,0A2.739,2.739,0,1,1,-2.739,0A2.739,2.739,0,1,1,2.739,0" stroke="#4c78a8" stroke-width="2" opacity="0.7"/><path aria-label="Produção total (t): 7391359284.36; PIB ($): 7.56039767182e+13; country_code: WLD; ano: 2012" role="graphics-symbol" aria-roledescription="point" transform="translate(492.75728562399996,125.07644829759275)" d="M2.739,0A2.739,2.739,0,1,1,-2.739,0A2.739,2.739,0,1,1,2.739,0" stroke="#4c78a8" stroke-width="2" opacity="0.7"/><path aria-label="Produção total (t): 7719101629.1; PIB ($): 7.77513683128e+13; country_code: WLD; ano: 2013" role="graphics-symbol" aria-roledescription="point" transform="translate(514.6067752733334,117.26775158994545)" d="M2.739,0A2.739,2.739,0,1,1,-2.739,0A2.739,2.739,0,1,1,2.739,0" stroke="#4c78a8" stroke-width="2" opacity="0.7"/><path aria-label="Produção total (t): 7825941923.76; PIB ($): 7.98943857599e+13; country_code: WLD; ano: 2014" role="graphics-symbol" aria-roledescription="point" transform="translate(521.7294615840001,109.47496087298548)" d="M2.739,0A2.739,2.739,0,1,1,-2.739,0A2.739,2.739,0,1,1,2.739,0" stroke="#4c78a8" stroke-width="2" opacity="0.7"/><path aria-label="Produção total (t): 7839116172.74; PIB ($): 7.53596572182e+13; country_code: WLD; ano: 2015" role="graphics-symbol" aria-roledescription="point" transform="translate(522.6077448493334,125.96488284275638)" d="M2.739,0A2.739,2.739,0,1,1,-2.739,0A2.739,2.739,0,1,1,2.739,0" stroke="#4c78a8" stroke-width="2" opacity="0.7"/><path aria-label="Produção total (t): 7979069918.47; PIB ($): 7.65880304553e+13; country_code: WLD; ano: 2016" role="graphics-symbol" aria-roledescription="point" transform="translate(531.9379945646667,121.49807107165454)" d="M2.739,0A2.739,2.739,0,1,1,-2.739,0A2.739,2.739,0,1,1,2.739,0" stroke="#4c78a8" stroke-width="2" opacity="0.7"/><path aria-label="Produção total (t): 8086139475.41; PIB ($): 8.15509557547e+13; country_code: WLD; ano: 2017" role="graphics-symbol" aria-roledescription="point" transform="translate(539.0759650273334,103.45106998276728)" d="M2.739,0A2.739,2.739,0,1,1,-2.739,0A2.739,2.739,0,1,1,2.739,0" stroke="#4c78a8" stroke-width="2" opacity="0.7"/><path aria-label="Produção total (t): 8133955384.03; PIB ($): 8.66868707866e+13; country_code: WLD; ano: 2018" role="graphics-symbol" aria-roledescription="point" transform="translate(542.2636922686667,84.77501532137816)" d="M2.739,0A2.739,2.739,0,1,1,-2.739,0A2.739,2.739,0,1,1,2.739,0" stroke="#4c78a8" stroke-width="2" opacity="0.7"/><path aria-label="Produção total (t): 8254535111.05; PIB ($): 8.79455743375e+13; country_code: WLD; ano: 2019" role="graphics-symbol" aria-roledescription="point" transform="translate(550.3023407366667,80.19791149993819)" d="M2.739,0A2.739,2.739,0,1,1,-2.739,0A2.739,2.739,0,1,1,2.739,0" stroke="#4c78a8" stroke-width="2" opacity="0.7"/><path aria-label="Produção total (t): 8198284582.4; PIB ($): 8.55777182502e+13; country_code: WLD; ano: 2020" role="graphics-symbol" aria-roledescription="point" transform="translate(546.5523054933333,88.8082972720182)" d="M2.739,0A2.739,2.739,0,1,1,-2.739,0A2.739,2.739,0,1,1,2.739,0" stroke="#4c78a8" stroke-width="2" opacity="0.7"/><path aria-label="Produção total (t): 8334426103.39; PIB ($): 9.75270328819e+13; country_code: WLD; ano: 2021" role="graphics-symbol" aria-roledescription="point" transform="translate(555.6284068926667,45.356244065814536)" d="M2.739,0A2.739,2.739,0,1,1,-2.739,0A2.739,2.739,0,1,1,2.739,0" stroke="#4c78a8" stroke-width="2" opacity="0.7"/><path aria-label="Produção total (t): 7813619466.21; PIB ($): 1.01225059591e+14; country_code: WLD; ano: 2022" role="graphics-symbol" aria-roledescription="point" transform="translate(520.907964414,31.90887421322546)" d="M2.739,0A2.739,2.739,0,1,1,-2.739,0A2.739,2.739,0,1,1,2.739,0" stroke="#4c78a8" stroke-width="2" opacity="0.7"/></g><g class="mark-line role-mark layer_1_marks" role="graphics-object" aria-roledescription="line mark container"><path aria-label="Produção total (t): 3000000000; PIB ($): 905545175699; country_code: undefined; ano: NaN" role="graphics-symbol" aria-roledescription="line mark" d="M200,396.707L555.628,89.934" stroke="red" stroke-width="2"/></g><g class="mark-group role-title"><g transform="translate(300,-22)"><path class="background" aria-hidden="true" d="M0,0h0v0h0Z" pointer-events="none"/><g><g class="mark-text role-title-text" role="graphics-symbol" aria-roledescription="title" aria-label="Title text 'Gráfico de dispersão: Produção total(t) vs PIB($)'" pointer-events="none"><text text-anchor="middle" transform="translate(0,10)" font-family="sans-serif" font-size="13px" font-weight="bold" fill="#000" opacity="1">Gráfico de dispersão: Produção total(t) vs PIB($)</text></g></g><path class="foreground" aria-hidden="true" d="" pointer-events="none" display="none"/></g></g></g><path class="foreground" aria-hidden="true" d="" display="none"/></g></g></g></svg>