<svg xmlns="http://www.w3.org/2000/svg" xmlns:xlink="http://www.w3.org/1999/xlink" version="1.1" class="marks" width="428" height="364" viewBox="0 0 428 364"><rect width="428" height="364" fill="white"/><g fill="none" stroke-miterlimit="10" transform="translate(122,27)"><g class="mark-group role-frame root" role="graphics-object" aria-roledescription="group mark container"><g transform="translate(0,0)"><path class="background" aria-hidden="true" d="M0.5,0.5h300v300h-300Z" stroke="#ddd"/><g><g class="mark-group role-axis" aria-hidden="true"><g transform="translate(0.5,300.5)"><path class="background" aria-hidden="true" d="M0,0h0v0h0Z" pointer-events="none"/><g><g class="mark-rule role-axis-grid" pointer-events="none"><line transform="translate(0,-300)" x2="0" y2="300" stroke="#ddd" stroke-width="1" opacity="1"/><line transform="translate(30,-300)" x2="0" y2="300" stroke="#ddd" stroke-width="1" opacity="1"/><line transform="translate(60,-300)" x2="0" y2="300" stroke="#ddd" stroke-width="1" opacity="1"/><line transform="translate(90,-300)" x2="0" y2="300" stroke="#ddd" stroke-width="1" opacity="1"/><line transform="translate(120,-300)" x2="0" y2="300" stroke="#ddd" stroke-width="1" opacity="1"/><line transform="translate(150,-300)" x2="0" y2="300" stroke="#ddd" stroke-width="1" opacity="1"/><line transform="translate(180,-300)" x2="0" y2="300" stroke="#ddd" stroke-width="1" opacity="1"/><line transform="translate(210,-300)" x2="0" y2="300" stroke="#ddd" stroke-width="1" opacity="1"/><line transform="translate(240,-300)" x2="0" y2="300" stroke="#ddd" stroke-width="1" opacity="1"/><line transform="translate(270,-300)" x2="0" y2="300" stroke="#ddd" stroke-width="1" opacity="1"/><line transform="translate(300,-300)" x2="0" y2="300" stroke="#ddd" stroke-width="1" opacity="1"/></g></g><path class="foreground" aria-hidden="true" d="" pointer-events="none" display="none"/></g></g><g class="mark-group role-axis" aria-hidden="true"><g transform="translate(0.5,0.5)"><path class="background" aria-hidden="true" d="M0,0h0v0h0Z" pointer-events="none"/><g><g class="mark-rule role-axis-grid" pointer-events="none"><line transform="translate(0,300)" x2="300" y2="0" stroke="#ddd" stroke-width="1" opacity="1"/><line transform="translate(0,273)" x2="300" y2="0" stroke="#ddd" stroke-width="1" opacity="1"/><line transform="translate(0,245)" x2="300" y2="0" stroke="#ddd" stroke-width="1" opacity="1"/><line transform="translate(0,218)" x2="300" y2="0" stroke="#ddd" stroke-width="1" opacity="1"/><line transform="translate(0,191)" x2="300" y2="0" stroke="#ddd" stroke-width="1" opacity="1"/><line transform="translate(0,164)" x2="300" y2="0" stroke="#ddd" stroke-width="1" opacity="1"/><line transform="translate(0,136)" x2="300" y2="0" stroke="#ddd" stroke-width="1" opacity="1"/><line transform="translate(0,109)" x2="300" y2="0" stroke="#ddd" stroke-width="1" opacity="1"/><line transform="translate(0,82)" x2="300" y2="0" stroke="#ddd" stroke-width="1" opacity="1"/><line transform="translate(0,55)" x2="300" y2="0" stroke="#ddd" stroke-width="1" opacity="1"/><line transform="translate(0,27)" x2="300" y2="0" stroke="#ddd" stroke-width="1" opacity="1"/><line transform="translate(0,0)" x2="300" y2="0" stroke="#ddd" stroke-width="1" opacity="1"/></g></g><path class="foreground" aria-hidden="true" d="" pointer-events="none" display="none"/></g></g><g class="mark-group role-axis" role="graphics-symbol" aria-roledescription="axis" aria-label="X-axis titled 'Produção Total (t)' for a linear scale with values from 0 to 10,000,000,000"><g transform="translate(0.5,300.5)"><path class="background" aria-hidden="true" d="M0,0h0v0h0Z" pointer-events="none"/><g><g class="mark-rule role-axis-tick" pointer-events="none"><line transform="translate(0,0)" x2="0" y2="5" stroke="#888" stroke-width="1" opacity="1"/><line transform="translate(30,0)" x2="0" y2="5" stroke="#888" stroke-width="1" opacity="1"/><line transform="translate(60,0)" x2="0" y2="5" stroke="#888" stroke-width="1" opacity="1"/><line transform="translate(90,0)" x2="0" y2="5" stroke="#888" stroke-width="1" opacity="1"/><line transform="translate(120,0)" x2="0" y2="5" stroke="#888" stroke-width="1" opacity="1"/><line transform="translate(150,0)" x2="0" y2="5" stroke="#888" stroke-width="1" opacity="1"/><line transform="translate(180,0)" x2="0" y2="5" stroke="#888" stroke-width="1" opacity="1"/><line transform="translate(210,0)" x2="0" y2="5" stroke="#888" stroke-width="1" opacity="1"/><line transform="translate(240,0)" x2="0" y2="5" stroke="#888" stroke-width="1" opacity="1"/><line transform="translate(270,0)" x2="0" y2="5" stroke="#888" stroke-width="1" opacity="1"/><line transform="translate(300,0)" x2="0" y2="5" stroke="#888" stroke-width="1" opacity="1"/></g><g class="mark-text role-axis-label" pointer-events="none"><text text-anchor="start" transform="translate(0,15)" font-family="sans-serif" font-size="10px" fill="#000" opacity="1">0</text><text text-anchor="middle" transform="translate(30,15)" font-family="sans-serif" font-size="10px" fill="#000" opacity="0">1,000,000,000</text><text text-anchor="middle" transform="translate(60,15)" font-family="sans-serif" font-size="10px" fill="#000" opacity="0">2,000,000,000</text><text text-anchor="middle" transform="translate(90,15)" font-family="sans-serif" font-size="10px" fill="#000" opacity="0">3,000,000,000</text><text text-anchor="middle" transform="translate(120,15)" font-family="sans-serif" font-size="10px" fill="#000" opacity="1">4,000,000,000</text><text text-anchor="middle" transform="translate(150,15)" font-family="sans-serif" font-size="10px" fill="#000" opacity="0">5,000,000,000</text><text text-anchor="middle" transform="translate(180,15)" font-family="sans-serif" font-size="10px" fill="#000" opacity="0">6,000,000,000</text><text text-anchor="middle" transform="translate(210,15)" font-family="sans-serif" font-size="10px" fill="#000" opacity="0">7,000,000,000</text><text text-anchor="middle" transform="translate(240,15)" font-family="sans-serif" font-size="10px" fill="#000" opacity="1">8,000,000,000</text><text text-anchor="middle" transform="translate(270,15)" font-family="sans-serif" font-size="10px" fill="#000" opacity="0">9,000,000,000</text><text text-anchor="end" transform="translate(300,15)" font-family="sans-serif" font-size="10px" fill="#000" opacity="0">10,000,000,000</text></g><g class="mark-rule role-axis-domain" pointer-events="none"><line transform="translate(0,0)" x2="300" y2="0" stroke="#888" stroke-width="1" opacity="1"/></g><g class="mark-text role-axis-title" pointer-events="none"><text text-anchor="middle" transform="translate(150,30)" font-family="sans-serif" font-size="11px" font-weight="bold" fill="#000" opacity="1">Produção Total (t)</text></g></g><path class="foreground" aria-hidden="true" d="" pointer-events="none" display="none"/></g></g><g class="mark-group role-axis" role="graphics-symbol" aria-roledescription="axis" aria-label="Y-axis titled 'PIB (USD)' for a linear scale with values from 0 to 110,000,000,000,000"><g transform="translate(0.5,0.5)"><path class="background" aria-hidden="true" d="M0,0h0v0h0Z" pointer-events="none"/><g><g class="mark-rule role-axis-tick" pointer-events="none"><line transform="translate(0,300)" x2="-5" y2="0" stroke="#888" stroke-width="1" opacity="1"/><line transform="translate(0,273)" x2="-5" y2="0" stroke="#888" stroke-width="1" opacity="1"/><line transform="translate(0,245)" x2="-5" y2="0" stroke="#888" stroke-width="1" opacity="1"/><line transform="translate(0,218)" x2="-5" y2="0" stroke="#888" stroke-width="1" opacity="1"/><line transform="translate(0,191)" x2="-5" y2="0" stroke="#888" stroke-width="1" opacity="1"/><line transform="translate(0,164)" x2="-5" y2="0" stroke="#888" stroke-width="1" opacity="1"/><line transform="translate(0,136)" x2="-5" y2="0" stroke="#888" stroke-width="1" opacity="1"/><line transform="translate(0,109)" x2="-5" y2="0" stroke="#888" stroke-width="1" opacity="1"/><line transform="translate(0,82)" x2="-5" y2="0" stroke="#888" stroke-width="1" opacity="1"/><line transform="translate(0,55)" x2="-5" y2="0" stroke="#888" stroke-width="1" opacity="1"/><line transform="translate(0,27)" x2="-5" y2="0" stroke="#888" stroke-width="1" opacity="1"/><line transform="translate(0,0)" x2="-5" y2="0" stroke="#888" stroke-width="1" opacity="1"/></g><g class="mark-text role-axis-label" pointer-events="none"><text text-anchor="end" transform="translate(-7,303)" font-family="sans-serif" font-size="10px" fill="#000" opacity="1">0</text><text text-anchor="end" transform="translate(-7,275.7272727272727)" font-family="sans-serif" font-size="10px" fill="#000" opacity="1">10,000,000,000,000</text><text text-anchor="end" transform="translate(-7,248.45454545454544)" font-family="sans-serif" font-size="10px" fill="#000" opacity="1">20,000,000,000,000</text><text text-anchor="end" transform="translate(-7,221.1818181818182)" font-family="sans-serif" font-size="10px" fill="#000" opacity="1">30,000,000,000,000</text><text text-anchor="end" transform="translate(-7,193.9090909090909)" font-family="sans-serif" font-size="10px" fill="#000" opacity="1">40,000,000,000,000</text><text text-anchor="end" transform="translate(-7,166.63636363636363)" font-family="sans-serif" font-size="10px" fill="#000" opacity="1">50,000,000,000,000</text><text text-anchor="end" transform="translate(-7,139.36363636363637)" font-family="sans-serif" font-size="10px" fill="#000" opacity="1">60,000,000,000,000</text><text text-anchor="end" transform="translate(-7,112.0909090909091)" font-family="sans-serif" font-size="10px" fill="#000" opacity="1">70,000,000,000,000</text><text text-anchor="end" transform="translate(-7,84.81818181818181)" font-family="sans-serif" font-size="10px" fill="#000" opacity="1">80,000,000,000,000</text><text text-anchor="end" transform="translate(-7,57.54545454545453)" font-family="sans-serif" font-size="10px" fill="#000" opacity="1">90,000,000,000,000</text><text text-anchor="end" transform="translate(-7,30.27272727272728)" font-family="sans-serif" font-size="10px" fill="#000" opacity="1">100,000,000,000,000</text><text text-anchor="end" transform="translate(-7,3)" font-family="sans-serif" font-size="10px" fill="#000" opacity="1">110,000,000,000,000</text></g><g class="mark-rule role-axis-domain" pointer-events="none"><line transform="translate(0,300)" x2="0" y2="-300" stroke="#888" stroke-width="1" opacity="1"/></g><g class="mark-text role-axis-title" pointer-events="none"><text text-anchor="middle" transform="translate(-105.5361328125,150) rotate(-90) translate(0,-2)" font-family="sans-serif" font-size="11px" font-weight="bold" fill="#000" opacity="1">PIB (USD)</text></g></g><path class="foreground" aria-hidden="true" d="" pointer-events="none" display="none"/></g></g><g class="mark-symbol role-mark layer_0_marks" role="graphics-object" aria-roledescription="symbol mark container"><path aria-label="Produção Total (t): 2267737469.58; PIB (USD): 1.43931947388e+12" role="graphics-symbol" aria-roledescription="point" transform="translate(68.03212408739999,296.0745832530518)" d="M2.739,0A2.739,2.739,0,1,1,-2.739,0A2.739,2.739,0,1,1,2.739,0" stroke="black" stroke-width="2" opacity="1"/><path aria-label="Produção Total (t): 2296595729.86; PIB (USD): 1.54284450688e+12" role="graphics-symbol" aria-roledescription="point" transform="translate(68.89787189580001,295.79224225395274)" d="M2.739,0A2.739,2.739,0,1,1,-2.739,0A2.739,2.739,0,1,1,2.739,0" stroke="black" stroke-width="2" opacity="1"/><path aria-label="Produção Total (t): 2361491759.93; PIB (USD): 1.66497695921e+12" role="graphics-symbol" aria-roledescription="point" transform="translate(70.8447527979,295.4591537476173)" d="M2.739,0A2.739,2.739,0,1,1,-2.739,0A2.739,2.739,0,1,1,2.739,0" stroke="black" stroke-width="2" opacity="1"/><path aria-label="Produção Total (t): 2547013383.49; PIB (USD): 1.82778485517e+12" role="graphics-symbol" aria-roledescription="point" transform="translate(76.4104015047,295.0151322131809)" d="M2.739,0A2.739,2.739,0,1,1,-2.739,0A2.739,2.739,0,1,1,2.739,0" stroke="black" stroke-width="2" opacity="1"/><path aria-label="Produção Total (t): 2575588505.35; PIB (USD): 1.99023954678e+12" role="graphics-symbol" aria-roledescription="point" transform="translate(77.2676551605,294.57207396334087)" d="M2.739,0A2.739,2.739,0,1,1,-2.739,0A2.739,2.739,0,1,1,2.739,0" stroke="black" stroke-width="2" opacity="1"/><path aria-label="Produção Total (t): 2692144851.55; PIB (USD): 2.15463762941e+12" role="graphics-symbol" aria-roledescription="point" transform="translate(80.76434554650001,294.1237155561682)" d="M2.739,0A2.739,2.739,0,1,1,-2.739,0A2.739,2.739,0,1,1,2.739,0" stroke="black" stroke-width="2" opacity="1"/><path aria-label="Produção Total (t): 2780298743.56; PIB (USD): 2.29387278687e+12" role="graphics-symbol" aria-roledescription="point" transform="translate(83.4089623068,293.74398330854456)" d="M2.739,0A2.739,2.739,0,1,1,-2.739,0A2.739,2.739,0,1,1,2.739,0" stroke="black" stroke-width="2" opacity="1"/><path aria-label="Produção Total (t): 2844339596.95; PIB (USD): 2.47901177307e+12" role="graphics-symbol" aria-roledescription="point" transform="translate(85.3301879085,293.23905880071544)" d="M2.739,0A2.739,2.739,0,1,1,-2.739,0A2.739,2.739,0,1,1,2.739,0" stroke="black" stroke-width="2" opacity="1"/><path aria-label="Produção Total (t): 2842837043.38; PIB (USD): 2.73553135971e+12" role="graphics-symbol" aria-roledescription="point" transform="translate(85.2851113014,292.5394599280691)" d="M2.739,0A2.739,2.739,0,1,1,-2.739,0A2.739,2.739,0,1,1,2.739,0" stroke="black" stroke-width="2" opacity="1"/><path aria-label="Produção Total (t): 2988943935.73; PIB (USD): 3.0015596263e+12" role="graphics-symbol" aria-roledescription="point" transform="translate(89.6683180719,291.81392829189815)" d="M2.739,0A2.739,2.739,0,1,1,-2.739,0A2.739,2.739,0,1,1,2.739,0" stroke="black" stroke-width="2" opacity="1"/><path aria-label="Produção Total (t): 3058931073.73; PIB (USD): 3.31606069794e+12" role="graphics-symbol" aria-roledescription="point" transform="translate(91.7679322119,290.9561980965382)" d="M2.739,0A2.739,2.739,0,1,1,-2.739,0A2.739,2.739,0,1,1,2.739,0" stroke="black" stroke-width="2" opacity="1"/><path aria-label="Produção Total (t): 3011936048.31; PIB (USD): 3.83267500871e+12" role="graphics-symbol" aria-roledescription="point" transform="translate(90.3580814493,289.5472499762591)" d="M2.739,0A2.739,2.739,0,1,1,-2.739,0A2.739,2.739,0,1,1,2.739,0" stroke="black" stroke-width="2" opacity="1"/><path aria-label="Produção Total (t): 3227817662.07; PIB (USD): 4.66249134082e+12" role="graphics-symbol" aria-roledescription="point" transform="translate(96.8345298621,287.28411452503366)" d="M2.739,0A2.739,2.739,0,1,1,-2.739,0A2.739,2.739,0,1,1,2.739,0" stroke="black" stroke-width="2" opacity="1"/><path aria-label="Produção Total (t): 3216238933.79; PIB (USD): 5.35893363157e+12" role="graphics-symbol" aria-roledescription="point" transform="translate(96.4871680137,285.38472645935457)" d="M2.739,0A2.739,2.739,0,1,1,-2.739,0A2.739,2.739,0,1,1,2.739,0" stroke="black" stroke-width="2" opacity="1"/><path aria-label="Produção Total (t): 3280541000.33; PIB (USD): 5.99067414049e+12" role="graphics-symbol" aria-roledescription="point" transform="translate(98.4162300099,283.6617977986691)" d="M2.739,0A2.739,2.739,0,1,1,-2.739,0A2.739,2.739,0,1,1,2.739,0" stroke="black" stroke-width="2" opacity="1"/><path aria-label="Produção Total (t): 3467423010.51; PIB (USD): 6.50827631963e+12" role="graphics-symbol" aria-roledescription="point" transform="translate(104.0226903153,282.2501554919209)" d="M2.739,0A2.739,2.739,0,1,1,-2.739,0A2.739,2.739,0,1,1,2.739,0" stroke="black" stroke-width="2" opacity="1"/><path aria-label="Produção Total (t): 3537424102.54; PIB (USD): 7.35678549792e+12" role="graphics-symbol" aria-roledescription="point" transform="translate(106.1227230762,279.93603955114094)" d="M2.739,0A2.739,2.739,0,1,1,-2.739,0A2.739,2.739,0,1,1,2.739,0" stroke="black" stroke-width="2" opacity="1"/><path aria-label="Produção Total (t): 3733490964.15; PIB (USD): 8.70084627243e+12" role="graphics-symbol" aria-roledescription="point" transform="translate(112.00472892450001,276.27041925701457)" d="M2.739,0A2.739,2.739,0,1,1,-2.739,0A2.739,2.739,0,1,1,2.739,0" stroke="black" stroke-width="2" opacity="1"/><path aria-label="Produção Total (t): 3709154413.43; PIB (USD): 1.01134308987e+13" role="graphics-symbol" aria-roledescription="point" transform="translate(111.2746324029,272.4179157307309)" d="M2.739,0A2.739,2.739,0,1,1,-2.739,0A2.739,2.739,0,1,1,2.739,0" stroke="black" stroke-width="2" opacity="1"/><path aria-label="Produção Total (t): 3635488679.47; PIB (USD): 1.14191641612e+13" role="graphics-symbol" aria-roledescription="point" transform="translate(109.0646603841,268.85682501486275)" d="M2.739,0A2.739,2.739,0,1,1,-2.739,0A2.739,2.739,0,1,1,2.739,0" stroke="black" stroke-width="2" opacity="1"/><path aria-label="Produção Total (t): 3848078704.88; PIB (USD): 1.1796482847e+13" role="graphics-symbol" aria-roledescription="point" transform="translate(115.4423611464,267.82777405359)" d="M2.739,0A2.739,2.739,0,1,1,-2.739,0A2.739,2.739,0,1,1,2.739,0" stroke="black" stroke-width="2" opacity="1"/><path aria-label="Produção Total (t): 4074905087.56; PIB (USD): 1.16480858805e+13" role="graphics-symbol" aria-roledescription="point" transform="translate(122.2471526268,268.23249305322)" d="M2.739,0A2.739,2.739,0,1,1,-2.739,0A2.739,2.739,0,1,1,2.739,0" stroke="black" stroke-width="2" opacity="1"/><path aria-label="Produção Total (t): 3990560071.58; PIB (USD): 1.19722107926e+13" role="graphics-symbol" aria-roledescription="point" transform="translate(119.7168021474,267.34851602006455)" d="M2.739,0A2.739,2.739,0,1,1,-2.739,0A2.739,2.739,0,1,1,2.739,0" stroke="black" stroke-width="2" opacity="1"/><path aria-label="Produção Total (t): 4257386279.75; PIB (USD): 1.24459893455e+13" role="graphics-symbol" aria-roledescription="point" transform="translate(127.7215883925,266.0563926941755)" d="M2.739,0A2.739,2.739,0,1,1,-2.739,0A2.739,2.739,0,1,1,2.739,0" stroke="black" stroke-width="2" opacity="1"/><path aria-label="Produção Total (t): 4282482028.04; PIB (USD): 1.30239928244e+13" role="graphics-symbol" aria-roledescription="point" transform="translate(128.4744608412,264.48001956976634)" d="M2.739,0A2.739,2.739,0,1,1,-2.739,0A2.739,2.739,0,1,1,2.739,0" stroke="black" stroke-width="2" opacity="1"/><path aria-label="Produção Total (t): 4356530290.62; PIB (USD): 1.53516898866e+13" role="graphics-symbol" aria-roledescription="point" transform="translate(130.6959087186,258.13175485461)" d="M2.739,0A2.739,2.739,0,1,1,-2.739,0A2.739,2.739,0,1,1,2.739,0" stroke="black" stroke-width="2" opacity="1"/><path aria-label="Produção Total (t): 4378197650.65; PIB (USD): 1.74850792083e+13" role="graphics-symbol" aria-roledescription="point" transform="translate(131.3459295195,252.31342034088817)" d="M2.739,0A2.739,2.739,0,1,1,-2.739,0A2.739,2.739,0,1,1,2.739,0" stroke="black" stroke-width="2" opacity="1"/><path aria-label="Produção Total (t): 4353624198.59; PIB (USD): 1.95475334201e+13" role="graphics-symbol" aria-roledescription="point" transform="translate(130.60872595770002,246.68854521788182)" d="M2.739,0A2.739,2.739,0,1,1,-2.739,0A2.739,2.739,0,1,1,2.739,0" stroke="black" stroke-width="2" opacity="1"/><path aria-label="Produção Total (t): 4571368864.57; PIB (USD): 2.03241444548e+13" role="graphics-symbol" aria-roledescription="point" transform="translate(137.1410659371,244.57051512317457)" d="M2.739,0A2.739,2.739,0,1,1,-2.739,0A2.739,2.739,0,1,1,2.739,0" stroke="black" stroke-width="2" opacity="1"/><path aria-label="Produção Total (t): 4700416871.33; PIB (USD): 2.28226100474e+13" role="graphics-symbol" aria-roledescription="point" transform="translate(141.01250613989998,237.75651805263547)" d="M2.739,0A2.739,2.739,0,1,1,-2.739,0A2.739,2.739,0,1,1,2.739,0" stroke="black" stroke-width="2" opacity="1"/><path aria-label="Produção Total (t): 4681978892.5; PIB (USD): 2.38235516329e+13" role="graphics-symbol" aria-roledescription="point" transform="translate(140.459366775,235.0266773648373)" d="M2.739,0A2.739,2.739,0,1,1,-2.739,0A2.739,2.739,0,1,1,2.739,0" stroke="black" stroke-width="2" opacity="1"/><path aria-label="Produção Total (t): 4817220449.48; PIB (USD): 2.54680132952e+13" role="graphics-symbol" aria-roledescription="point" transform="translate(144.51661348439998,230.54178192224182)" d="M2.739,0A2.739,2.739,0,1,1,-2.739,0A2.739,2.739,0,1,1,2.739,0" stroke="black" stroke-width="2" opacity="1"/><path aria-label="Produção Total (t): 4727301098.15; PIB (USD): 2.59594190352e+13" role="graphics-symbol" aria-roledescription="point" transform="translate(141.81903294449998,229.2015844495609)" d="M2.739,0A2.739,2.739,0,1,1,-2.739,0A2.739,2.739,0,1,1,2.739,0" stroke="black" stroke-width="2" opacity="1"/><path aria-label="Produção Total (t): 4838561224.94; PIB (USD): 2.79388512796e+13" role="graphics-symbol" aria-roledescription="point" transform="translate(145.1568367482,223.80313287369546)" d="M2.739,0A2.739,2.739,0,1,1,-2.739,0A2.739,2.739,0,1,1,2.739,0" stroke="black" stroke-width="2" opacity="1"/><path aria-label="Produção Total (t): 4936149859.81; PIB (USD): 3.11406100569e+13" role="graphics-symbol" aria-roledescription="point" transform="translate(148.0844957943,215.07106348105637)" d="M2.739,0A2.739,2.739,0,1,1,-2.739,0A2.739,2.739,0,1,1,2.739,0" stroke="black" stroke-width="2" opacity="1"/><path aria-label="Produção Total (t): 5236739724.17; PIB (USD): 3.18576941013e+13" role="graphics-symbol" aria-roledescription="point" transform="translate(157.1021917251,213.11537972380364)" d="M2.739,0A2.739,2.739,0,1,1,-2.739,0A2.739,2.739,0,1,1,2.739,0" stroke="black" stroke-width="2" opacity="1"/><path aria-label="Produção Total (t): 5354134686.46; PIB (USD): 3.17522971547e+13" role="graphics-symbol" aria-roledescription="point" transform="translate(160.6240405938,213.4028259416018)" d="M2.739,0A2.739,2.739,0,1,1,-2.739,0A2.739,2.739,0,1,1,2.739,0" stroke="black" stroke-width="2" opacity="1"/><path aria-label="Produção Total (t): 5381346329.69; PIB (USD): 3.16970437497e+13" role="graphics-symbol" aria-roledescription="point" transform="translate(161.4403898907,213.5535170463845)" d="M2.739,0A2.739,2.739,0,1,1,-2.739,0A2.739,2.739,0,1,1,2.739,0" stroke="black" stroke-width="2" opacity="1"/><path aria-label="Produção Total (t): 5489637653.05; PIB (USD): 3.27309982801e+13" role="graphics-symbol" aria-roledescription="point" transform="translate(164.6891295915,210.73364105432455)" d="M2.739,0A2.739,2.739,0,1,1,-2.739,0A2.739,2.739,0,1,1,2.739,0" stroke="black" stroke-width="2" opacity="1"/><path aria-label="Produção Total (t): 5545079646.34; PIB (USD): 3.383938735e+13" role="graphics-symbol" aria-roledescription="point" transform="translate(166.3523893902,207.7107617725991)" d="M2.739,0A2.739,2.739,0,1,1,-2.739,0A2.739,2.739,0,1,1,2.739,0" stroke="black" stroke-width="2" opacity="1"/><path aria-label="Produção Total (t): 5586682459.22; PIB (USD): 3.36269602027e+13" role="graphics-symbol" aria-roledescription="point" transform="translate(167.6004737766,208.2901085382082)" d="M2.739,0A2.739,2.739,0,1,1,-2.739,0A2.739,2.739,0,1,1,2.739,0" stroke="black" stroke-width="2" opacity="1"/><path aria-label="Produção Total (t): 5706112707.79; PIB (USD): 3.4917697038e+13" role="graphics-symbol" aria-roledescription="point" transform="translate(171.1833812337,204.76991716914)" d="M2.739,0A2.739,2.739,0,1,1,-2.739,0A2.739,2.739,0,1,1,2.739,0" stroke="black" stroke-width="2" opacity="1"/><path aria-label="Produção Total (t): 5807080976.79; PIB (USD): 3.91521392897e+13" role="graphics-symbol" aria-roledescription="point" transform="translate(174.2124293037,193.22143830080455)" d="M2.739,0A2.739,2.739,0,1,1,-2.739,0A2.739,2.739,0,1,1,2.739,0" stroke="black" stroke-width="2" opacity="1"/><path aria-label="Produção Total (t): 6064232980.49; PIB (USD): 4.41162445708e+13" role="graphics-symbol" aria-roledescription="point" transform="translate(181.9269894147,179.68296935248637)" d="M2.739,0A2.739,2.739,0,1,1,-2.739,0A2.739,2.739,0,1,1,2.739,0" stroke="black" stroke-width="2" opacity="1"/><path aria-label="Produção Total (t): 6057683422.76; PIB (USD): 4.77603207387e+13" role="graphics-symbol" aria-roledescription="point" transform="translate(181.73050268280002,169.74457980341725)" d="M2.739,0A2.739,2.739,0,1,1,-2.739,0A2.739,2.739,0,1,1,2.739,0" stroke="black" stroke-width="2" opacity="1"/><path aria-label="Produção Total (t): 6239060895.34; PIB (USD): 5.17498086326e+13" role="graphics-symbol" aria-roledescription="point" transform="translate(187.1718268602,158.8641582747655)" d="M2.739,0A2.739,2.739,0,1,1,-2.739,0A2.739,2.739,0,1,1,2.739,0" stroke="black" stroke-width="2" opacity="1"/><path aria-label="Produção Total (t): 6568410329.57; PIB (USD): 5.83148679299e+13" role="graphics-symbol" aria-roledescription="point" transform="translate(197.05230988709997,140.95945110033)" d="M2.739,0A2.739,2.739,0,1,1,-2.739,0A2.739,2.739,0,1,1,2.739,0" stroke="black" stroke-width="2" opacity="1"/><path aria-label="Produção Total (t): 6904105643.3; PIB (USD): 6.40722959296e+13" role="graphics-symbol" aria-roledescription="point" transform="translate(207.123169299,125.25737473733727)" d="M2.739,0A2.739,2.739,0,1,1,-2.739,0A2.739,2.739,0,1,1,2.739,0" stroke="black" stroke-width="2" opacity="1"/><path aria-label="Produção Total (t): 6859626318.21; PIB (USD): 6.07182627545e+13" role="graphics-symbol" aria-roledescription="point" transform="translate(205.78878954630002,134.40473794232724)" d="M2.739,0A2.739,2.739,0,1,1,-2.739,0A2.739,2.739,0,1,1,2.739,0" stroke="black" stroke-width="2" opacity="1"/><path aria-label="Produção Total (t): 6923748442.88; PIB (USD): 6.65141746348e+13" role="graphics-symbol" aria-roledescription="point" transform="translate(207.7124532864,118.59770554152001)" d="M2.739,0A2.739,2.739,0,1,1,-2.739,0A2.739,2.739,0,1,1,2.739,0" stroke="black" stroke-width="2" opacity="1"/><path aria-label="Produção Total (t): 7356793501.15; PIB (USD): 7.39577929098e+13" role="graphics-symbol" aria-roledescription="point" transform="translate(220.7038050345,98.2969284279)" d="M2.739,0A2.739,2.739,0,1,1,-2.739,0A2.739,2.739,0,1,1,2.739,0" stroke="black" stroke-width="2" opacity="1"/><path aria-label="Produção Total (t): 7391359284.36; PIB (USD): 7.56039767182e+13" role="graphics-symbol" aria-roledescription="point" transform="translate(221.7407785308,93.80733622319455)" d="M2.739,0A2.739,2.739,0,1,1,-2.739,0A2.739,2.739,0,1,1,2.739,0" stroke="black" stroke-width="2" opacity="1"/><path aria-label="Produção Total (t): 7719101629.1; PIB (USD): 7.77513683128e+13" role="graphics-symbol" aria-roledescription="point" transform="translate(231.573048873,87.95081369245908)" d="M2.739,0A2.739,2.739,0,1,1,-2.739,0A2.739,2.739,0,1,1,2.739,0" stroke="black" stroke-width="2" opacity="1"/><path aria-label="Produção Total (t): 7825941923.76; PIB (USD): 7.98943857599e+13" role="graphics-symbol" aria-roledescription="point" transform="translate(234.7782577128,82.1062206547391)" d="M2.739,0A2.739,2.739,0,1,1,-2.739,0A2.739,2.739,0,1,1,2.739,0" stroke="black" stroke-width="2" opacity="1"/><path aria-label="Produção Total (t): 7839116172.74; PIB (USD): 7.53596572182e+13" role="graphics-symbol" aria-roledescription="point" transform="translate(235.17348518219998,94.47366213206728)" d="M2.739,0A2.739,2.739,0,1,1,-2.739,0A2.739,2.739,0,1,1,2.739,0" stroke="black" stroke-width="2" opacity="1"/><path aria-label="Produção Total (t): 7979069918.47; PIB (USD): 7.65880304553e+13" role="graphics-symbol" aria-roledescription="point" transform="translate(239.37209755409998,91.1235533037409)" d="M2.739,0A2.739,2.739,0,1,1,-2.739,0A2.739,2.739,0,1,1,2.739,0" stroke="black" stroke-width="2" opacity="1"/><path aria-label="Produção Total (t): 8086139475.41; PIB (USD): 8.15509557547e+13" role="graphics-symbol" aria-roledescription="point" transform="translate(242.5841842623,77.58830248707545)" d="M2.739,0A2.739,2.739,0,1,1,-2.739,0A2.739,2.739,0,1,1,2.739,0" stroke="black" stroke-width="2" opacity="1"/><path aria-label="Produção Total (t): 8133955384.03; PIB (USD): 8.66868707866e+13" role="graphics-symbol" aria-roledescription="point" transform="translate(244.01866152089997,63.58126149103362)" d="M2.739,0A2.739,2.739,0,1,1,-2.739,0A2.739,2.739,0,1,1,2.739,0" stroke="black" stroke-width="2" opacity="1"/><path aria-label="Produção Total (t): 8254535111.05; PIB (USD): 8.79455743375e+13" role="graphics-symbol" aria-roledescription="point" transform="translate(247.6360533315,60.14843362495363)" d="M2.739,0A2.739,2.739,0,1,1,-2.739,0A2.739,2.739,0,1,1,2.739,0" stroke="black" stroke-width="2" opacity="1"/><path aria-label="Produção Total (t): 8198284582.4; PIB (USD): 8.55777182502e+13" role="graphics-symbol" aria-roledescription="point" transform="translate(245.948537472,66.60622295401365)" d="M2.739,0A2.739,2.739,0,1,1,-2.739,0A2.739,2.739,0,1,1,2.739,0" stroke="black" stroke-width="2" opacity="1"/><path aria-label="Produção Total (t): 8334426103.39; PIB (USD): 9.75270328819e+13" role="graphics-symbol" aria-roledescription="point" transform="translate(250.0327831017,34.0171830493609)" d="M2.739,0A2.739,2.739,0,1,1,-2.739,0A2.739,2.739,0,1,1,2.739,0" stroke="black" stroke-width="2" opacity="1"/><path aria-label="Produção Total (t): 7813619466.21; PIB (USD): 1.01225059591e+14" role="graphics-symbol" aria-roledescription="point" transform="translate(234.4085839863,23.931655659919095)" d="M2.739,0A2.739,2.739,0,1,1,-2.739,0A2.739,2.739,0,1,1,2.739,0" stroke="black" stroke-width="2" opacity="1"/></g><g class="mark-line role-mark layer_1_marks" role="graphics-object" aria-roledescription="line mark container"><path aria-label="Produção Total (t): 3118089206.84; PIB (USD): 1.43931947388e+12; Intercepto: NaN; Inclinação: NaN" role="graphics-symbol" aria-roledescription="line mark" d="M93.543,296.075L274.815,23.932" stroke="grey" stroke-width="2"/></g><g class="mark-group role-title"><g transform="translate(150,-22)"><path class="background" aria-hidden="true" d="M0,0h0v0h0Z" pointer-events="none"/><g><g class="mark-text role-title-text" role="graphics-symbol" aria-roledescription="title" aria-label="Title text 'Produção x PIB (Mundo)'" pointer-events="none"><text text-anchor="middle" transform="translate(0,10)" font-family="sans-serif" font-size="13px" font-weight="bold" fill="#000" opacity="1">Produção x PIB (Mundo)</text></g></g><path class="foreground" aria-hidden="true" d="" pointer-events="none" display="none"/></g></g></g><path class="foreground" aria-hidden="true" d="" display="none"/></g></g></g></svg>