<svg xmlns="http://www.w3.org/2000/svg" xmlns:xlink="http://www.w3.org/1999/xlink" version="1.1" class="marks" width="781" height="477" viewBox="0 0 781 477"><rect width="781" height="477" fill="white"/><g fill="none" stroke-miterlimit="10" transform="translate(47,27)"><g class="mark-group role-frame root" role="graphics-object" aria-roledescription="group mark container"><g transform="translate(0,0)"><path class="background" aria-hidden="true" d="M0.5,0.5h600v400h-600Z" stroke="#ddd"/><g><g class="mark-group role-axis" aria-hidden="true"><g transform="translate(0.5,0.5)"><path class="background" aria-hidden="true" d="M0,0h0v0h0Z" pointer-events="none"/><g><g class="mark-rule role-axis-grid" pointer-events="none"><line transform="translate(0,400)" x2="600" y2="0" stroke="#ddd" stroke-width="1" opacity="1"/><line transform="translate(0,356)" x2="600" y2="0" stroke="#ddd" stroke-width="1" opacity="1"/><line transform="translate(0,311)" x2="600" y2="0" stroke="#ddd" stroke-width="1" opacity="1"/><line transform="translate(0,267)" x2="600" y2="0" stroke="#ddd" stroke-width="1" opacity="1"/><line transform="translate(0,222)" x2="600" y2="0" stroke="#ddd" stroke-width="1" opacity="1"/><line transform="translate(0,178)" x2="600" y2="0" stroke="#ddd" stroke-width="1" opacity="1"/><line transform="translate(0,133)" x2="600" y2="0" stroke="#ddd" stroke-width="1" opacity="1"/><line transform="translate(0,89)" x2="600" y2="0" stroke="#ddd" stroke-width="1" opacity="1"/><line transform="translate(0,44)" x2="600" y2="0" stroke="#ddd" stroke-width="1" opacity="1"/><line transform="translate(0,0)" x2="600" y2="0" stroke="#ddd" stroke-width="1" opacity="1"/></g></g><path class="foreground" aria-hidden="true" d="" pointer-events="none" display="none"/></g></g><g class="mark-group role-axis" role="graphics-symbol" aria-roledescription="axis" aria-label="X-axis titled 'ano' for a discrete scale with 62 values: 1961, 1962, 1963, 1964, 1965, ending with 2022"><g transform="translate(0.5,400.5)"><path class="background" aria-hidden="true" d="M0,0h0v0h0Z" pointer-events="none"/><g><g class="mark-rule role-axis-tick" pointer-events="none"><line transform="translate(5,0)" x2="0" y2="5" stroke="#888" stroke-width="1" opacity="1"/><line transform="translate(44,0)" x2="0" y2="5" stroke="#888" stroke-width="1" opacity="1"/><line transform="translate(92,0)" x2="0" y2="5" stroke="#888" stroke-width="1" opacity="1"/><line transform="translate(140,0)" x2="0" y2="5" stroke="#888" stroke-width="1" opacity="1"/><line transform="translate(189,0)" x2="0" y2="5" stroke="#888" stroke-width="1" opacity="1"/><line transform="translate(237,0)" x2="0" y2="5" stroke="#888" stroke-width="1" opacity="1"/><line transform="translate(285,0)" x2="0" y2="5" stroke="#888" stroke-width="1" opacity="1"/><line transform="translate(334,0)" x2="0" y2="5" stroke="#888" stroke-width="1" opacity="1"/><line transform="translate(382,0)" x2="0" y2="5" stroke="#888" stroke-width="1" opacity="1"/><line transform="translate(431,0)" x2="0" y2="5" stroke="#888" stroke-width="1" opacity="1"/><line transform="translate(479,0)" x2="0" y2="5" stroke="#888" stroke-width="1" opacity="1"/><line transform="translate(527,0)" x2="0" y2="5" stroke="#888" stroke-width="1" opacity="1"/><line transform="translate(576,0)" x2="0" y2="5" stroke="#888" stroke-width="1" opacity="1"/><line transform="translate(595,0)" x2="0" y2="5" stroke="#888" stroke-width="1" opacity="1"/></g><g class="mark-text role-axis-label" pointer-events="none"><text text-anchor="end" transform="translate(4.838709677419331,7) rotate(270) translate(0,3)" font-family="sans-serif" font-size="10px" fill="#000" opacity="1">1961</text><text text-anchor="end" transform="translate(43.54838709677417,7) rotate(270) translate(0,3)" font-family="sans-serif" font-size="10px" fill="#000" opacity="1">1965</text><text text-anchor="end" transform="translate(91.93548387096772,7) rotate(270) translate(0,3)" font-family="sans-serif" font-size="10px" fill="#000" opacity="1">1970</text><text text-anchor="end" transform="translate(140.32258064516128,7) rotate(270) translate(0,3)" font-family="sans-serif" font-size="10px" fill="#000" opacity="1">1975</text><text text-anchor="end" transform="translate(188.70967741935482,7) rotate(270) translate(0,3)" font-family="sans-serif" font-size="10px" fill="#000" opacity="1">1980</text><text text-anchor="end" transform="translate(237.09677419354836,7) rotate(270) translate(0,3)" font-family="sans-serif" font-size="10px" fill="#000" opacity="1">1985</text><text text-anchor="end" transform="translate(285.4838709677419,7) rotate(270) translate(0,3)" font-family="sans-serif" font-size="10px" fill="#000" opacity="1">1990</text><text text-anchor="end" transform="translate(333.8709677419355,7) rotate(270) translate(0,3)" font-family="sans-serif" font-size="10px" fill="#000" opacity="1">1995</text><text text-anchor="end" transform="translate(382.258064516129,7) rotate(270) translate(0,3)" font-family="sans-serif" font-size="10px" fill="#000" opacity="1">2000</text><text text-anchor="end" transform="translate(430.64516129032256,7) rotate(270) translate(0,3)" font-family="sans-serif" font-size="10px" fill="#000" opacity="1">2005</text><text text-anchor="end" transform="translate(479.0322580645161,7) rotate(270) translate(0,3)" font-family="sans-serif" font-size="10px" fill="#000" opacity="1">2010</text><text text-anchor="end" transform="translate(527.4193548387098,7) rotate(270) translate(0,3)" font-family="sans-serif" font-size="10px" fill="#000" opacity="1">2015</text><text text-anchor="end" transform="translate(575.8064516129032,7) rotate(270) translate(0,3)" font-family="sans-serif" font-size="10px" fill="#000" opacity="1">2020</text><text text-anchor="end" transform="translate(595.1612903225807,7) rotate(270) translate(0,3)" font-family="sans-serif" font-size="10px" fill="#000" opacity="1">2022</text></g><g class="mark-rule role-axis-domain" pointer-events="none"><line transform="translate(0,0)" x2="600" y2="0" stroke="#888" stroke-width="1" opacity="1"/></g><g class="mark-text role-axis-title" pointer-events="none"><text text-anchor="middle" transform="translate(300,42.24609375)" font-family="sans-serif" font-size="11px" font-weight="bold" fill="#000" opacity="1">ano</text></g></g><path class="foreground" aria-hidden="true" d="" pointer-events="none" display="none"/></g></g><g class="mark-group role-axis" role="graphics-symbol" aria-roledescription="axis" aria-label="Y-axis titled 'Correlação entre Produção agrícola e PIB' for a linear scale with values from 0.6 to 1.0"><g transform="translate(0.5,0.5)"><path class="background" aria-hidden="true" d="M0,0h0v0h0Z" pointer-events="none"/><g><g class="mark-rule role-axis-tick" pointer-events="none"><line transform="translate(0,400)" x2="-5" y2="0" stroke="#888" stroke-width="1" opacity="1"/><line transform="translate(0,356)" x2="-5" y2="0" stroke="#888" stroke-width="1" opacity="1"/><line transform="translate(0,311)" x2="-5" y2="0" stroke="#888" stroke-width="1" opacity="1"/><line transform="translate(0,267)" x2="-5" y2="0" stroke="#888" stroke-width="1" opacity="1"/><line transform="translate(0,222)" x2="-5" y2="0" stroke="#888" stroke-width="1" opacity="1"/><line transform="translate(0,178)" x2="-5" y2="0" stroke="#888" stroke-width="1" opacity="1"/><line transform="translate(0,133)" x2="-5" y2="0" stroke="#888" stroke-width="1" opacity="1"/><line transform="translate(0,89)" x2="-5" y2="0" stroke="#888" stroke-width="1" opacity="1"/><line transform="translate(0,44)" x2="-5" y2="0" stroke="#888" stroke-width="1" opacity="1"/><line transform="translate(0,0)" x2="-5" y2="0" stroke="#888" stroke-width="1" opacity="1"/></g><g class="mark-text role-axis-label" pointer-events="none"><text text-anchor="end" transform="translate(-7,403)" font-family="sans-serif" font-size="10px" fill="#000" opacity="1">0.55</text><text text-anchor="end" transform="translate(-7,358.5555555555556)" font-family="sans-serif" font-size="10px" fill="#000" opacity="1">0.60</text><text text-anchor="end" transform="translate(-7,314.11111111111114)" font-family="sans-serif" font-size="10px" fill="#000" opacity="1">0.65</text><text text-anchor="end" transform="translate(-7,269.66666666666674)" font-family="sans-serif" font-size="10px" fill="#000" opacity="1">0.70</text><text text-anchor="end" transform="translate(-7,225.22222222222223)" font-family="sans-serif" font-size="10px" fill="#000" opacity="1">0.75</text><text text-anchor="end" transform="translate(-7,180.77777777777777)" font-family="sans-serif" font-size="10px" fill="#000" opacity="1">0.80</text><text text-anchor="end" transform="translate(-7,136.33333333333334)" font-family="sans-serif" font-size="10px" fill="#000" opacity="1">0.85</text><text text-anchor="end" transform="translate(-7,91.88888888888889)" font-family="sans-serif" font-size="10px" fill="#000" opacity="1">0.90</text><text text-anchor="end" transform="translate(-7,47.44444444444451)" font-family="sans-serif" font-size="10px" fill="#000" opacity="1">0.95</text><text text-anchor="end" transform="translate(-7,3)" font-family="sans-serif" font-size="10px" fill="#000" opacity="1">1.00</text></g><g class="mark-rule role-axis-domain" pointer-events="none"><line transform="translate(0,400)" x2="0" y2="-400" stroke="#888" stroke-width="1" opacity="1"/></g><g class="mark-text role-axis-title" pointer-events="none"><text text-anchor="middle" transform="translate(-30.462890625,200) rotate(-90) translate(0,-2)" font-family="sans-serif" font-size="11px" font-weight="bold" fill="#000" opacity="1">Correlação entre Produção agrícola e PIB</text></g></g><path class="foreground" aria-hidden="true" d="" pointer-events="none" display="none"/></g></g><g class="mark-group role-scope pathgroup" role="graphics-object" aria-roledescription="group mark container"><g transform="translate(0,0)"><path class="background" aria-hidden="true" d="M0,0h600v400h-600Z"/><g><g class="mark-line role-mark marks" role="graphics-object" aria-roledescription="line mark container"><path aria-label="ano: 1961; Correlação entre Produção agrícola e PIB: 0.976979107734; dataset: developed; corr: 0.976979107734" role="graphics-symbol" aria-roledescription="line mark" d="M4.839,20.463L14.516,24.281L24.194,19.636L33.871,21.348L43.548,20.175L53.226,21.305L62.903,16.766L72.581,19.958L82.258,18.781L91.935,22.585L101.613,20.16L111.29,20.76L120.968,30.661L130.645,33.553L140.323,29.707L150,32.582L159.677,37.196L169.355,58.359L179.032,49.138L188.71,48.22L198.387,50.662L208.065,42.068L217.742,57.728L227.419,47.452L237.097,44.686L246.774,72.093L256.452,91.191L266.129,119.753L275.806,102.835L285.484,93.716L295.161,115.736L304.839,116.441L314.516,140.247L324.194,142.459L333.871,160.976L343.548,131.164L353.226,108.077L362.903,85.235L372.581,97.823L382.258,101.801L391.935,81.276L401.613,83.06L411.29,81.627L420.968,80.848L430.645,68.075L440.323,61.589L450,57.619L459.677,65.789L469.355,66.573L479.032,73.386L488.71,91.727L498.387,92.241L508.065,67.252L517.742,61.911L527.419,53.363L537.097,50.45L546.774,56.219L556.452,71.336L566.129,69.746L575.806,44.725L585.484,40.919L595.161,45.904" stroke="#4c78a8" stroke-width="2"/></g></g><path class="foreground" aria-hidden="true" d="" display="none"/></g><g transform="translate(0,0)"><path class="background" aria-hidden="true" d="M0,0h600v400h-600Z"/><g><g class="mark-line role-mark marks" role="graphics-object" aria-roledescription="line mark container"><path aria-label="ano: 1961; Correlação entre Produção agrícola e PIB: 0.944542759661; dataset: emerging; corr: 0.944542759661" role="graphics-symbol" aria-roledescription="line mark" d="M4.839,49.295L14.516,17.017L24.194,3.567L33.871,3.116L43.548,7.245L53.226,41.049L62.903,12.219L72.581,14.378L82.258,32.481L91.935,42.4L101.613,29.604L111.29,30.145L120.968,38.685L130.645,52.353L140.323,76.294L150,86.981L159.677,91.354L169.355,84.602L179.032,128.548L188.71,240.242L198.387,279.849L208.065,166.741L217.742,94.081L227.419,63.654L237.097,24.957L246.774,21.502L256.452,45.242L266.129,36.038L275.806,113.798L285.484,97.651L295.161,110.643L304.839,269.543L314.516,236.852L324.194,164.739L333.871,168.387L343.548,153L353.226,130.769L362.903,102.452L372.581,60.244L382.258,63.324L391.935,58.544L401.613,43.974L411.29,58.932L420.968,49.123L430.645,50.412L440.323,62.733L450,79.149L459.677,99.293L469.355,70.867L479.032,72.163L488.71,86.401L498.387,104.159L508.065,112.992L517.742,108.239L527.419,113.723L537.097,110.521L546.774,103.287L556.452,124.403L566.129,126.231L575.806,139.187L585.484,138.083L595.161,133.474" stroke="#e45756" stroke-width="2"/></g></g><path class="foreground" aria-hidden="true" d="" display="none"/></g><g transform="translate(0,0)"><path class="background" aria-hidden="true" d="M0,0h600v400h-600Z"/><g><g class="mark-line role-mark marks" role="graphics-object" aria-roledescription="line mark container"><path aria-label="ano: 1961; Correlação entre Produção agrícola e PIB: 0.969199383266; dataset: developing_countries; corr: 0.969199383266" role="graphics-symbol" aria-roledescription="line mark" d="M4.839,27.378L14.516,23.71L24.194,19.228L33.871,16.595L43.548,17.697L53.226,47.275L62.903,37.772L72.581,49.516L82.258,58.179L91.935,67.763L101.613,64.247L111.29,70.743L120.968,90.757L130.645,113.224L140.323,159.731L150,164.447L159.677,125.572L169.355,136.792L179.032,171.758L188.71,214.906L198.387,310.909L208.065,233.897L217.742,168.798L227.419,175.485L237.097,154.108L246.774,81.384L256.452,82.965L266.129,100.486L275.806,103.664L285.484,140.581L295.161,171.138L304.839,193.794L314.516,279.507L324.194,226.436L333.871,172.533L343.548,179.089L353.226,183.789L362.903,186.522L372.581,199.675L382.258,229.768L391.935,243.281L401.613,239.073L411.29,188.186L420.968,158.494L430.645,138.112L440.323,130.315L450,105.713L459.677,103.436L469.355,58.845L479.032,54.41L488.71,65.517L498.387,69.911L508.065,69.048L517.742,64.301L527.419,66.361L537.097,56.305L546.774,48.874L556.452,53.521L566.129,61.85L575.806,79.339L585.484,67.865L595.161,71.081" stroke="#f58518" stroke-width="2"/></g></g><path class="foreground" aria-hidden="true" d="" display="none"/></g></g><g class="mark-group role-legend" role="graphics-symbol" aria-roledescription="legend" aria-label="Symbol legend titled 'dataset' for stroke color with 3 values: developed, developing_countries, emerging"><g transform="translate(618,0)"><path class="background" aria-hidden="true" d="M0,0h111v53h-111Z" pointer-events="none"/><g><g class="mark-group role-legend-entry"><g transform="translate(0,16)"><path class="background" aria-hidden="true" d="M0,0h0v0h0Z" pointer-events="none"/><g><g class="mark-group role-scope" role="graphics-object" aria-roledescription="group mark container"><g transform="translate(0,0)"><path class="background" aria-hidden="true" d="M0,0h110.51171875v11h-110.51171875Z" pointer-events="none" opacity="1"/><g><g class="mark-symbol role-legend-symbol" pointer-events="none"><path transform="translate(6,6)" d="M-5,0L5,0" stroke="#4c78a8" stroke-width="1.5" opacity="1"/></g><g class="mark-text role-legend-label" pointer-events="none"><text text-anchor="start" transform="translate(16,9)" font-family="sans-serif" font-size="10px" fill="#000" opacity="1">developed</text></g></g><path class="foreground" aria-hidden="true" d="" pointer-events="none" display="none"/></g><g transform="translate(0,13)"><path class="background" aria-hidden="true" d="M0,0h110.51171875v11h-110.51171875Z" pointer-events="none" opacity="1"/><g><g class="mark-symbol role-legend-symbol" pointer-events="none"><path transform="translate(6,6)" d="M-5,0L5,0" stroke="#f58518" stroke-width="1.5" opacity="1"/></g><g class="mark-text role-legend-label" pointer-events="none"><text text-anchor="start" transform="translate(16,9)" font-family="sans-serif" font-size="10px" fill="#000" opacity="1">developing_countries</text></g></g><path class="foreground" aria-hidden="true" d="" pointer-events="none" display="none"/></g><g transform="translate(0,26)"><path class="background" aria-hidden="true" d="M0,0h110.51171875v11h-110.51171875Z" pointer-events="none" opacity="1"/><g><g class="mark-symbol role-legend-symbol" pointer-events="none"><path transform="translate(6,6)" d="M-5,0L5,0" stroke="#e45756" stroke-width="1.5" opacity="1"/></g><g class="mark-text role-legend-label" pointer-events="none"><text text-anchor="start" transform="translate(16,9)" font-family="sans-serif" font-size="10px" fill="#000" opacity="1">emerging</text></g></g><path class="foreground" aria-hidden="true" d="" pointer-events="none" display="none"/></g></g></g><path class="foreground" aria-hidden="true" d="" pointer-events="none" display="none"/></g></g><g class="mark-text role-legend-title" pointer-events="none"><text text-anchor="start" transform="translate(0,9)" font-family="sans-serif" font-size="11px" font-weight="bold" fill="#000" opacity="1">dataset</text></g></g><path class="foreground" aria-hidden="true" d="" pointer-events="none" display="none"/></g></g><g class="mark-group role-title"><g transform="translate(300,-22)"><path class="background" aria-hidden="true" d="M0,0h0v0h0Z" pointer-events="none"/><g><g class="mark-text role-title-text" role="graphics-symbol" aria-roledescription="title" aria-label="Title text 'Gráfico de Linhas Triplo: Correlação por Ano'" pointer-events="none"><text text-anchor="middle" transform="translate(0,10)" font-family="sans-serif" font-size="13px" font-weight="bold" fill="#000" opacity="1">Gráfico de Linhas Triplo: Correlação por Ano</text></g></g><path class="foreground" aria-hidden="true" d="" pointer-events="none" display="none"/></g></g></g><path class="foreground" aria-hidden="true" d="" display="none"/></g></g></g></svg>